PathFileType	4	(X/Y/Z)	 s06c0302.trc
DataRate	CameraRate	NumFrames	NumMarkers	Units	OrigDataRate	OrigDataStartFrame	OrigNumFrames
200	200	7	48	mm	200	1751	2000
Frame#	Time	racr			lacr			c7			jug			rlel			rdr			llel			ldr			s2			lic			ric			lasi			rasi			rpsi			lpsi			rgt			lgt			rth1			rth2			rth3			rth4			rlfc			rmfc			rsh1			rsh2			rsh3			rsh4			rlmal			rcal			rtoe			rmt5			lth1			lth2			lth4			lth3			llfc			lmfc			llmal			lcal			lmt5			lsh1			lsh2			lsh3			lsh4			ltoe			SBIKE			LBIKE			RBIKE			
		X1	Y1	Z1	X2	Y2	Z2	X3	Y3	Z3	X4	Y4	Z4	X5	Y5	Z5	X6	Y6	Z6	X7	Y7	Z7	X8	Y8	Z8	X9	Y9	Z9	X10	Y10	Z10	X11	Y11	Z11	X12	Y12	Z12	X13	Y13	Z13	X14	Y14	Z14	X15	Y15	Z15	X16	Y16	Z16	X17	Y17	Z17	X18	Y18	Z18	X19	Y19	Z19	X20	Y20	Z20	X21	Y21	Z21	X22	Y22	Z22	X23	Y23	Z23	X24	Y24	Z24	X25	Y25	Z25	X26	Y26	Z26	X27	Y27	Z27	X28	Y28	Z28	X29	Y29	Z29	X30	Y30	Z30	X31	Y31	Z31	X32	Y32	Z32	X33	Y33	Z33	X34	Y34	Z34	X35	Y35	Z35	X36	Y36	Z36	X37	Y37	Z37	X38	Y38	Z38	X39	Y39	Z39	X40	Y40	Z40	X41	Y41	Z41	X42	Y42	Z42	X43	Y43	Z43	X44	Y44	Z44	X45	Y45	Z45	X46	Y46	Z46	X47	Y47	Z47	X48	Y48	Z48	
1751	8.7550	459.880153	1332.438074	-64.856290	482.775752	1347.590698	-366.532364	459.442558	1408.235573	-216.240717	463.871768	1248.880059	-214.976804	537.453532	1096.318710	23.668217	716.807107	921.623772	-37.961454	538.796939	1098.772826	-456.895561	710.395575	924.006543	-392.611408	-58.715704	1149.455306	-197.901084	96.463387	1125.707048	-375.680062	107.603765	1104.548602	-38.643174	106.928024	1080.858133	-336.852490	133.806112	1057.121637	-74.731757	-24.792584	1182.339865	-164.164214	-29.761878	1186.270707	-223.336706	59.600048	1016.810970	-11.357024	64.127542	1086.960612	-398.523804	137.955917	908.333509	6.365517	202.137822	844.210897	1.813590	226.451952	761.219294	-6.084220	231.698677	864.123367	-10.984453	252.473390	660.890338	-27.553832	245.293376	641.606366	-138.225081	195.207695	551.562563	-6.961806	170.392641	470.633290	-30.434417	110.287632	407.598708	-36.019257	192.229650	463.493568	-63.835535	60.938034	347.769642	-46.595280	2.047990	365.605885	-98.424116	185.238613	158.335899	-89.995772	100.323566	213.655598	-23.785604	139.308115	1006.419806	-414.468220	225.163038	989.597507	-413.766685	241.271286	1020.263996	-398.210218	292.255348	930.282175	-416.070030	367.121946	840.433064	-392.348347	375.444687	821.419011	-278.446422	223.659122	495.697200	-374.991208	153.924165	458.703788	-326.471814	349.861684	445.264297	-402.698614	332.460527	736.567181	-411.672011	318.704925	653.078347	-389.992334	265.283495	582.008599	-387.802677	341.749874	648.685635	-358.707978	434.093307	462.225136	-342.862161	-205.088041	867.625188	-202.245738	-51.985903	84.004434	-410.116636	-50.509571	80.262885	-12.878911	
1752	8.7600	459.250753	1332.007644	-64.580009	482.264967	1347.404818	-366.575222	458.823566	1407.648049	-216.072210	463.383363	1248.326788	-215.006528	537.071376	1095.786260	23.791640	716.772891	921.621196	-37.880067	538.523831	1098.457228	-456.536488	710.384758	924.015101	-392.574320	-59.044700	1148.029665	-198.422050	96.679876	1124.368732	-376.515774	107.220577	1103.706731	-38.870018	107.226863	1079.712783	-337.506043	133.663507	1056.177661	-74.913781	-25.160649	1181.218874	-164.889605	-30.079183	1185.139436	-224.114561	59.522430	1016.127830	-11.835742	64.346971	1085.219543	-399.419137	138.106689	907.823969	6.112343	202.480209	843.866646	1.650657	226.985045	760.857118	-6.134197	231.988726	863.796499	-11.031111	253.471900	660.802509	-27.324287	246.379505	641.391759	-138.028959	196.372958	551.390859	-6.865405	171.239603	470.516133	-30.444091	111.101504	407.620532	-35.926170	193.074629	463.436351	-63.829482	61.253451	348.148699	-46.435442	2.385337	366.196726	-98.361588	184.897964	158.327255	-89.974617	100.147384	213.922662	-23.742593	139.447159	1004.652603	-414.925829	225.256384	987.843000	-414.224373	241.425641	1018.567268	-398.856846	292.356078	928.500218	-416.247655	367.114775	838.888911	-392.477647	375.409726	820.078666	-278.675487	223.335319	494.492862	-374.969700	153.804993	457.138867	-326.391742	349.823736	444.787934	-402.807469	332.342181	735.213152	-411.753040	318.476402	651.706055	-390.097279	265.025927	580.726773	-387.871215	341.457998	647.364311	-358.765549	433.969106	462.258943	-342.978508	-205.137908	867.581979	-202.271874	-51.980539	83.967363	-410.114333	-50.481109	79.850923	-13.276568	
1753	8.7650	458.607355	1331.661285	-64.344311	481.737803	1347.217754	-366.607092	458.307062	1407.214094	-216.100735	462.939413	1247.782309	-214.997220	536.657974	1095.369908	23.901512	716.888150	921.452293	-37.617628	538.190862	1098.166050	-456.226542	710.411784	924.036748	-392.556334	-59.177802	1146.895831	-198.869214	96.918017	1122.996567	-377.351811	106.681738	1102.838903	-39.187092	107.404225	1078.468935	-338.196642	133.557839	1055.346060	-75.252562	-25.439761	1180.221489	-165.774221	-30.339851	1184.130416	-224.949044	59.415700	1015.430689	-12.395951	64.582157	1083.693577	-400.260626	138.154204	907.320634	5.816188	202.783504	843.584346	1.476957	227.471677	760.487711	-6.208728	232.252183	863.584458	-11.122857	254.384473	660.696935	-27.166337	247.374108	641.234340	-137.879122	197.522440	551.161047	-6.756708	172.197400	470.326109	-30.378147	111.850310	407.566397	-35.867905	193.810810	463.321827	-63.970853	61.592728	348.431374	-46.278390	2.705707	366.783171	-98.304965	184.598808	158.289565	-89.943011	100.041743	214.147464	-23.704133	139.583255	1003.165504	-415.469749	225.398181	986.255297	-414.708503	241.583427	1017.072155	-399.531485	292.456829	926.858883	-416.484466	367.076471	837.571642	-392.644600	375.348988	818.920931	-278.849615	223.074109	493.415279	-375.017514	153.703802	455.783127	-326.330276	349.734733	444.135735	-402.625669	332.179664	734.006159	-411.795615	318.286035	650.584035	-390.159295	264.749551	579.553605	-388.005322	341.244643	646.121509	-358.796506	433.864435	462.297989	-343.106590	-205.169229	867.550828	-202.294297	-51.983674	83.936020	-410.127163	-50.465646	79.820938	-13.262426	
1754	8.7700	458.014884	1331.334259	-64.080950	481.339209	1347.114782	-366.648890	457.662824	1406.609564	-215.922294	462.539021	1247.319728	-214.951421	536.200787	1095.109495	24.057996	716.869244	921.410534	-37.574947	537.829166	1097.913239	-456.041210	710.432052	924.025126	-392.530708	-59.303560	1146.095301	-199.576502	97.162286	1121.746136	-378.127357	106.322087	1101.957284	-39.459563	107.553822	1077.327580	-338.840468	134.218019	1055.633637	-74.578524	-25.716634	1179.340479	-166.515265	-30.621130	1183.194011	-225.816474	59.296142	1014.655448	-12.970770	64.788641	1082.347456	-401.007148	138.196702	906.811926	5.510400	203.043129	843.355712	1.306100	227.914524	760.206300	-6.211800	232.452806	863.429438	-11.246655	255.210338	660.478640	-27.061636	248.299341	641.014551	-137.678219	198.674022	550.793368	-6.558666	172.970271	469.994887	-30.428894	112.639065	407.462030	-35.801736	194.532723	463.261072	-64.051939	61.856925	348.705784	-46.184457	2.950942	367.230161	-98.251078	184.311281	158.306211	-89.940359	99.906669	214.346327	-23.706252	139.733483	1001.828021	-415.971037	225.524886	984.825445	-415.241494	241.787361	1015.721418	-400.229198	292.511255	925.405662	-416.766635	367.104636	836.419377	-392.788599	375.256284	817.859772	-279.054373	222.867308	492.463618	-374.962888	153.660420	454.536990	-326.205467	349.686597	443.968189	-402.915440	332.054802	733.026395	-411.906581	318.146156	649.546379	-390.275767	264.552902	578.545726	-388.097717	341.058260	645.151944	-358.906400	433.777181	462.301257	-343.228046	-205.187048	867.515719	-202.337779	-51.991020	83.925610	-410.127807	-50.479444	79.801742	-13.291931	
1755	8.7750	457.493448	1331.042369	-63.891316	480.985691	1347.068250	-366.628219	457.203609	1406.284788	-215.921734	462.203649	1246.895004	-214.892294	535.786215	1094.760087	24.144768	716.794461	921.369124	-37.575037	537.505018	1097.705130	-455.900677	710.424276	924.003882	-392.479553	-59.381428	1145.017468	-201.385270	97.511908	1120.578619	-378.909626	105.942973	1101.265683	-39.699783	107.715940	1076.200029	-339.545526	134.015985	1054.599235	-75.055002	-26.116999	1178.527257	-167.319216	-30.904084	1182.362876	-226.588522	59.096696	1014.094979	-13.522346	65.043956	1081.241576	-401.740681	138.170682	906.407495	5.134307	203.297109	843.087171	1.130881	228.321195	760.063888	-6.215727	232.636382	863.325950	-11.360234	256.016080	660.284412	-26.971777	249.124788	640.795814	-137.506624	199.712833	550.364779	-6.382674	173.613642	469.652876	-30.848448	113.229531	407.330854	-35.778365	195.012191	463.242010	-64.328931	61.981585	348.994989	-46.097153	3.113776	367.627387	-98.254174	183.986330	158.353169	-89.977678	99.752301	214.613367	-23.725400	139.894695	1000.698331	-416.417736	225.652256	983.635836	-415.782479	241.999316	1014.561284	-400.917094	292.585251	924.148391	-417.145919	367.035608	835.393355	-393.026360	375.170987	816.958726	-279.251252	222.786879	491.532638	-374.948091	153.869748	453.360391	-325.895392	349.728918	443.599752	-403.018490	331.962478	732.126318	-411.996076	318.019545	648.639702	-390.319052	264.439042	577.700137	-388.187657	341.003558	644.286041	-359.054197	433.769387	462.195752	-343.318121	-205.202987	867.490891	-202.382581	-51.996558	83.897318	-410.138735	-50.469200	79.793389	-13.275376	
1756	8.7800	456.972754	1330.874476	-63.670188	480.658156	1347.040252	-366.569398	456.740822	1405.868541	-215.755776	461.868462	1246.518440	-214.835942	535.447219	1094.478849	24.196521	716.697648	921.361555	-37.626324	537.208610	1097.515325	-455.818391	710.397751	923.978267	-392.427525	-59.477648	1144.229875	-201.879628	97.900964	1119.627999	-379.720908	105.494221	1100.503723	-40.041742	107.894601	1075.261755	-340.305835	133.858813	1053.871987	-75.662587	-26.347601	1177.859594	-168.048009	-31.141886	1181.664791	-227.434977	58.922001	1013.545354	-14.129512	65.242782	1080.426995	-402.421698	138.215288	906.060311	4.765526	203.498143	842.969207	0.979563	228.698482	760.000246	-6.225359	232.804212	863.244577	-11.494810	256.646200	660.006354	-26.917902	249.839385	640.572240	-137.337875	200.622290	550.087315	-6.181861	174.332135	469.718737	-30.632460	113.725866	407.203514	-35.773311	195.311136	463.078941	-64.666871	61.965617	349.328760	-46.068793	3.118423	368.046686	-98.255943	183.681226	158.517784	-89.964890	99.521931	214.942620	-23.765384	139.995312	999.748057	-416.871873	225.808887	982.639615	-416.290045	242.193702	1013.615122	-401.617418	292.677866	923.011915	-417.487852	367.039485	834.593655	-393.225916	375.151166	816.394051	-279.436117	222.828048	490.826179	-374.953635	154.010344	452.519432	-325.818508	349.849001	443.168983	-403.099893	331.899700	731.478291	-412.103852	318.025563	647.992339	-390.489841	264.403181	577.007757	-388.223914	340.990489	643.581753	-359.145476	433.837086	461.990617	-343.407711	-205.222264	867.453329	-202.445407	-52.012978	83.882726	-410.129800	-50.476115	79.769859	-13.285838	
1757	8.7850	456.492997	1330.779927	-63.416586	480.439565	1347.071650	-366.516561	456.334900	1405.520334	-215.589264	461.550320	1246.188796	-214.774833	535.144985	1094.227581	24.168842	716.592199	921.350498	-37.672753	536.889196	1097.321068	-455.781283	710.346524	923.961656	-392.376190	-59.605965	1143.657446	-202.669059	98.316000	1118.718281	-380.420815	105.291150	1099.831570	-40.375034	108.017633	1074.336454	-340.967113	133.047439	1052.440925	-76.753838	-26.610801	1177.245476	-168.748708	-31.375442	1181.169255	-228.145462	58.737156	1013.051033	-14.696821	65.469257	1079.796102	-402.955684	138.280374	905.837534	4.494491	203.700176	842.880506	0.839248	228.993043	759.941687	-6.214160	232.993041	863.177853	-11.621244	257.262594	659.817337	-26.799358	250.434295	640.419506	-137.247685	201.347734	549.792161	-6.036236	174.576281	469.356862	-31.090643	114.088507	407.129053	-35.796757	195.499665	463.046774	-64.933371	61.845933	349.659023	-46.044192	2.997335	368.479075	-98.269887	183.348477	158.715713	-89.962579	99.273062	215.317120	-23.777553	140.185868	999.049532	-417.311799	225.932337	981.860185	-416.789207	242.371575	1012.871879	-402.274374	292.730657	922.225625	-417.862945	367.144516	834.023855	-393.441914	375.123475	815.957273	-279.610823	222.968436	490.304522	-374.926882	154.257679	451.817353	-325.709574	350.062730	442.716038	-403.183310	331.938235	730.918115	-412.230253	318.097645	647.390954	-390.617895	264.562823	576.386373	-388.292240	341.116974	643.021234	-359.325388	434.031850	461.648513	-343.494816	-205.235048	867.435471	-202.505555	-52.004803	83.854728	-410.147651	-50.488762	79.769307	-13.305558	
